<svg xmlns="http://www.w3.org/2000/svg" width="16" height="16" version="1">
  <circle cx="8" cy="8" r="7.5" fill="gold" stroke="#e0be00"/>
  <path d="M10.42 11.11l.18.91h1.13V7.68H8.35V9h1.78q-.08.84-.56 1.29-.48.43-1.35.43-.6 0-1.02-.22-.41-.24-.67-.62-.26-.38-.38-.85-.12-.49-.12-1 0-.52.11-1.02.13-.5.39-.88.26-.39.67-.62.42-.23 1.01-.23.64 0 1.1.34.44.34.6 1.01h1.7q-.07-.68-.38-1.21-.3-.53-.77-.9Q10 4.18 9.4 4q-.57-.2-1.2-.2-.92 0-1.66.33-.73.33-1.24.9-.5.58-.77 1.35-.27.77-.27 1.67 0 .87.27 1.64.27.75.78 1.32.5.56 1.23.89.75.3 1.67.3.58 0 1.16-.23.57-.24 1.04-.85z"/>
</svg>
